<?xml version="1.0" encoding="UTF-8"?>
<svg id="Final" xmlns="http://www.w3.org/2000/svg" viewBox="0 0 200 82.45">
  <defs>
    <style>
      .cls-1 {
        fill: #ff7f00;
      }
    </style>
  </defs>
  <g id="LOGO">
    <g id="LOGO_FONT_PATHS" data-name="LOGO FONT PATHS">
      <path class="cls-1" d="M11.9,81.93V49.74H0v-2.3H26.33v2.3H14.37v32.19h-2.47Z"/>
      <path class="cls-1" d="M34.9,81.93V47.44h12.71c8.16,0,12.99,4.14,12.99,11.33,0,5.75-3.45,9.54-8.62,10.69v.17l9.14,11.61v.69h-2.53l-9.49-12.02h-11.73v12.02h-2.47Zm2.47-14.32h10.92c5.58,0,9.77-3.05,9.77-8.8s-4.14-9.08-10.41-9.08h-10.29v17.88Z"/>
      <path class="cls-1" d="M69.39,81.93V47.44h23.4v2.3h-20.93v13.63h18.17v2.3h-18.17v13.97h20.93v2.3h-23.4Z"/>
      <path class="cls-1" d="M101.01,81.93V47.44h6.27l16.84,20.24v-20.24h8.05v34.49h-6.21l-16.9-20.58v20.58h-8.05Z"/>
      <path class="cls-1" d="M138.04,81.93V47.44h25.01v6.96h-16.9v6.9h14.2v6.32h-14.2v7.36h16.9v6.96h-25.01Z"/>
      <path class="cls-1" d="M164.6,64.69c0-9.43,7.19-17.53,17.59-17.53s17.71,8.11,17.71,17.53-7.19,17.76-17.71,17.76-17.59-8.16-17.59-17.76Zm26.96,0c0-5.63-4.08-9.77-9.37-9.77s-9.26,4.14-9.26,9.77,4.08,9.95,9.26,9.95,9.37-4.14,9.37-9.95Z"/>
    </g>
    <path id="LOGO-2" data-name="LOGO" class="cls-1" d="M200,17.65c0,9.75-7.9,17.65-17.65,17.65H100L50,17.65,0,0H182.35c9.75,0,17.65,7.91,17.65,17.65Z"/>
  </g>
</svg>