<svg id="FINAL" xmlns="http://www.w3.org/2000/svg" viewBox="0 0 200 82.45">
  <defs>
    <style>
      .cls-1 {
        fill: #ff7f00;
      }
    </style>
  </defs>
  <g id="LOGO">
    <g id="WORDMARK">
      <path class="cls-1" d="M11.9,81.93V49.74H0v-2.3H26.33v2.3h-12V81.93Z"/>
      <path class="cls-1" d="M34.9,81.93V47.44H47.6c8.17,0,13,4.14,13,11.32,0,5.75-3.45,9.55-8.63,10.7v.17l9.14,11.61v.69H58.58l-9.48-12H37.37v12Zm2.47-14.31H48.29c5.58,0,9.78-3.05,9.78-8.8,0-6-4.14-9.08-10.41-9.08H37.37Z"/>
      <path class="cls-1" d="M69.39,81.93V47.44h23.4v2.3H71.86V63.36H90v2.3H71.86v14H92.79v2.3Z"/>
      <path class="cls-1" d="M100,81.93V47.44h6.27l16.84,20.24V47.44h8V81.93H125l-16.9-20.58V81.93Z"/>
      <path class="cls-1" d="M137.27,81.93V47.44h25v7h-16.9v6.89h14.2v6.33h-14.2V75h16.9v7Z"/>
      <path class="cls-1" d="M164.6,64.69a17.65,17.65,0,1,1,17.59,17.76C171.79,82.45,164.6,74.29,164.6,64.69Zm27,0c0-5.64-4.08-9.78-9.37-9.78s-9.25,4.14-9.25,9.78c0,5.8,4.08,9.94,9.25,9.94S191.56,70.49,191.56,64.69Z"/>
    </g>
    <g id="ICON">
      <path id="ICON-2" data-name="ICON" class="cls-1" d="M200,17.65A17.65,17.65,0,0,1,182.35,35.3H100c1.76,0,9.31-5,9.31-8.84C109.31,17,39.74,4.94.93.12L0,0H182.35A17.65,17.65,0,0,1,200,17.65Z"/>
    </g>
  </g>
</svg>
