<?xml version="1.0" encoding="UTF-8"?>
<svg id="FINAL" xmlns="http://www.w3.org/2000/svg" viewBox="0 0 229.92 134.88">
  <defs>
    <style>
      .cls-1 {
        fill: #fff;
      }

      .cls-2 {
        fill: #ff7f00;
      }
    </style>
  </defs>
  <rect class="cls-1" width="229.92" height="134.88"/>
  <g id="LOGO">
    <g id="WORDMARK">
      <path class="cls-2" d="M45.27,92.83v-23.5h-8.69v-1.68h19.22v1.68h-8.76v23.5h-1.77Z"/>
      <path class="cls-2" d="M62.06,92.83v-25.18h9.27c5.97,0,9.49,3.02,9.49,8.27,0,4.2-2.52,6.97-6.3,7.81v.12l6.67,8.48v.5h-1.85l-6.92-8.76h-8.56v8.76h-1.8Zm1.8-10.45h7.97c4.07,0,7.14-2.23,7.14-6.43s-3.02-6.63-7.6-6.63h-7.51v13.05Z"/>
      <path class="cls-2" d="M87.25,92.83v-25.18h17.09v1.68h-15.28v9.94h13.24v1.68h-13.24v10.22h15.28v1.68l-17.09-.02Z"/>
      <path class="cls-2" d="M109.6,92.83v-25.18h4.58l12.3,14.78v-14.78h5.84v25.18h-4.46l-12.34-15.03v15.03h-5.91Z"/>
      <path class="cls-2" d="M136.81,92.83v-25.18h18.25v5.11h-12.34v5.03h10.37v4.62h-10.37v5.36h12.34v5.11l-18.25-.05Z"/>
      <path class="cls-2" d="M156.76,80.25c.04-7.12,5.85-12.85,12.97-12.81,7.12,.04,12.85,5.85,12.81,12.97-.04,7.1-5.83,12.83-12.93,12.81-7.59,0-12.84-5.96-12.84-12.97Zm19.71,0c0-4.12-2.98-7.14-6.84-7.14s-6.75,3.02-6.75,7.14,2.98,7.26,6.75,7.26,6.81-3.02,6.81-7.26h.03Z"/>
    </g>
    <g id="ICON">
      <path id="ICON-2" class="cls-2" d="M182.61,45.9c0,7.12-5.77,12.89-12.89,12.89h-60.13c1.29,0,6.8-3.65,6.8-6.45,0-6.91-50.8-15.71-79.13-19.23l-.68-.09H169.72c7.12,0,12.89,5.77,12.89,12.89Z"/>
    </g>
  </g>
</svg>